<svg width="88" height="80" viewBox="0 0 88 80" fill="none" xmlns="http://www.w3.org/2000/svg">
<path d="M40.0003 80C17.9457 80 0 62.055 0 40.0003C0 17.9457 17.9457 0 40.0003 0C47.6695 0 55.1309 2.18529 61.5782 6.32348C62.844 7.13847 63.2148 8.82571 62.3999 10.0948C61.5822 11.3639 59.8983 11.7308 58.6292 10.9164C53.0654 7.34155 46.6221 5.45456 40.0003 5.45456C20.9527 5.45456 5.45456 20.9527 5.45456 40.0003C5.45456 59.0474 20.9527 74.5454 40.0003 74.5454C59.0474 74.5454 74.5454 59.0474 74.5454 40.0003C74.5454 38.8617 74.4908 37.7345 74.3856 36.6259C74.2405 35.1237 75.3385 33.7927 76.8366 33.6476C78.3421 33.5091 79.6691 34.6004 79.8149 36.0985C79.9381 37.3823 80 38.684 80 40.0003C80 62.055 62.055 80 40.0003 80Z" fill="white"/>
<path d="M44.5457 49.0911C43.8479 49.0911 43.1494 48.8254 42.6187 48.2914L26.2551 31.9277C25.1897 30.8617 25.1897 29.1345 26.2551 28.0692C27.3204 27.0038 29.0476 27.0038 30.1129 28.0692L44.5497 42.5059L82.6184 4.43652C83.6844 3.37118 85.4116 3.37118 86.477 4.43652C87.5423 5.50186 87.5423 7.22905 86.477 8.2944L46.4766 48.2947C45.9419 48.8254 45.2442 49.0911 44.5457 49.0911Z" fill="white"/>
</svg>
